M48
;GenerationSoftware,Autodesk,EAGLE,9.6.2*%
;CreationDate,2022-02-13T21:02:40Z*%
FMAT,2
ICI,OFF
METRIC,TZ,000.000
T2C0.813
T1C1.000
%
G90
M71
T1
X115570Y97790
X118110Y97790
X120650Y97790
X123190Y97790
X125730Y97790
X128270Y97790
X130810Y97790
X133350Y97790
X135890Y97790
X138430Y97790
X140970Y97790
X143510Y97790
X146050Y97790
X148590Y97790
X151130Y97790
X153670Y97790
X143510Y77470
X140970Y77470
X138430Y77470
X135890Y77470
X133350Y77470
X130810Y77470
X128270Y77470
X125730Y77470
X123190Y77470
X120650Y77470
X118110Y77470
X115570Y77470
X140970Y69850
X143510Y69850
X146050Y69850
X148590Y69850
X151130Y69850
X153670Y69850
X140970Y57150
X143510Y57150
X146050Y57150
X148590Y57150
X151130Y57150
X153670Y57150
X140970Y35560
X143510Y35560
X146050Y35560
X148590Y35560
X151130Y35560
X153670Y35560
T2
X119380Y46990
X127000Y46990
X127000Y41910
X119380Y41910
X119380Y36830
X127000Y36830
M30