G04 EAGLE Gerber RS-274X export*
G75*
%MOMM*%
%FSLAX34Y34*%
%LPD*%
%INTop Copper*%
%IPPOS*%
%AMOC8*
5,1,8,0,0,1.08239X$1,22.5*%
G01*
%ADD10C,0.130000*%
%ADD11C,0.152400*%
%ADD12R,1.320800X0.558800*%
%ADD13C,1.676400*%
%ADD14C,1.778000*%
%ADD15P,1.429621X8X22.500000*%
%ADD16P,1.429621X8X202.500000*%
%ADD17C,0.406400*%


D10*
X939800Y304800D02*
X939800Y247200D01*
X1600200Y247200D02*
X1600200Y304800D01*
X1599550Y266700D02*
X940450Y266700D01*
X965800Y269892D01*
X965800Y263508D01*
X940450Y266700D01*
X965800Y268000D01*
X965800Y265400D02*
X940450Y266700D01*
X965800Y269300D01*
X965800Y264100D02*
X940450Y266700D01*
X1574200Y269892D02*
X1599550Y266700D01*
X1574200Y269892D02*
X1574200Y263508D01*
X1599550Y266700D01*
X1574200Y268000D01*
X1574200Y265400D02*
X1599550Y266700D01*
X1574200Y269300D01*
X1574200Y264100D02*
X1599550Y266700D01*
D11*
X1244271Y282238D02*
X1238852Y282238D01*
X1244271Y282238D02*
X1244389Y282236D01*
X1244507Y282230D01*
X1244625Y282221D01*
X1244742Y282207D01*
X1244859Y282190D01*
X1244976Y282169D01*
X1245091Y282144D01*
X1245206Y282115D01*
X1245320Y282082D01*
X1245432Y282046D01*
X1245543Y282006D01*
X1245653Y281963D01*
X1245762Y281916D01*
X1245869Y281866D01*
X1245974Y281811D01*
X1246077Y281754D01*
X1246178Y281693D01*
X1246278Y281629D01*
X1246375Y281562D01*
X1246470Y281492D01*
X1246562Y281418D01*
X1246653Y281342D01*
X1246740Y281262D01*
X1246825Y281180D01*
X1246907Y281095D01*
X1246987Y281008D01*
X1247063Y280917D01*
X1247137Y280825D01*
X1247207Y280730D01*
X1247274Y280633D01*
X1247338Y280533D01*
X1247399Y280432D01*
X1247456Y280329D01*
X1247511Y280224D01*
X1247561Y280117D01*
X1247608Y280008D01*
X1247651Y279898D01*
X1247691Y279787D01*
X1247727Y279675D01*
X1247760Y279561D01*
X1247789Y279446D01*
X1247814Y279331D01*
X1247835Y279214D01*
X1247852Y279097D01*
X1247866Y278980D01*
X1247875Y278862D01*
X1247881Y278744D01*
X1247883Y278626D01*
X1247883Y277723D01*
X1247884Y277723D02*
X1247882Y277590D01*
X1247876Y277458D01*
X1247866Y277326D01*
X1247853Y277194D01*
X1247835Y277062D01*
X1247814Y276932D01*
X1247789Y276801D01*
X1247760Y276672D01*
X1247727Y276544D01*
X1247691Y276416D01*
X1247651Y276290D01*
X1247607Y276165D01*
X1247559Y276041D01*
X1247508Y275919D01*
X1247453Y275798D01*
X1247395Y275679D01*
X1247333Y275561D01*
X1247268Y275446D01*
X1247199Y275332D01*
X1247128Y275221D01*
X1247052Y275112D01*
X1246974Y275005D01*
X1246893Y274900D01*
X1246808Y274798D01*
X1246721Y274698D01*
X1246631Y274601D01*
X1246538Y274506D01*
X1246442Y274415D01*
X1246344Y274326D01*
X1246243Y274240D01*
X1246139Y274157D01*
X1246033Y274077D01*
X1245925Y274001D01*
X1245815Y273927D01*
X1245702Y273857D01*
X1245588Y273790D01*
X1245471Y273727D01*
X1245353Y273667D01*
X1245233Y273610D01*
X1245111Y273557D01*
X1244988Y273508D01*
X1244864Y273462D01*
X1244738Y273420D01*
X1244611Y273382D01*
X1244483Y273347D01*
X1244354Y273316D01*
X1244225Y273289D01*
X1244094Y273266D01*
X1243963Y273246D01*
X1243831Y273231D01*
X1243699Y273219D01*
X1243567Y273211D01*
X1243434Y273207D01*
X1243302Y273207D01*
X1243169Y273211D01*
X1243037Y273219D01*
X1242905Y273231D01*
X1242773Y273246D01*
X1242642Y273266D01*
X1242511Y273289D01*
X1242382Y273316D01*
X1242253Y273347D01*
X1242125Y273382D01*
X1241998Y273420D01*
X1241872Y273462D01*
X1241748Y273508D01*
X1241625Y273557D01*
X1241503Y273610D01*
X1241383Y273667D01*
X1241265Y273727D01*
X1241148Y273790D01*
X1241034Y273857D01*
X1240921Y273927D01*
X1240811Y274001D01*
X1240703Y274077D01*
X1240597Y274157D01*
X1240493Y274240D01*
X1240392Y274326D01*
X1240294Y274415D01*
X1240198Y274506D01*
X1240105Y274601D01*
X1240015Y274698D01*
X1239928Y274798D01*
X1239843Y274900D01*
X1239762Y275005D01*
X1239684Y275112D01*
X1239608Y275221D01*
X1239537Y275332D01*
X1239468Y275446D01*
X1239403Y275561D01*
X1239341Y275679D01*
X1239283Y275798D01*
X1239228Y275919D01*
X1239177Y276041D01*
X1239129Y276165D01*
X1239085Y276290D01*
X1239045Y276416D01*
X1239009Y276544D01*
X1238976Y276672D01*
X1238947Y276801D01*
X1238922Y276932D01*
X1238901Y277062D01*
X1238883Y277194D01*
X1238870Y277326D01*
X1238860Y277458D01*
X1238854Y277590D01*
X1238852Y277723D01*
X1238852Y282238D01*
X1238854Y282415D01*
X1238861Y282593D01*
X1238872Y282770D01*
X1238887Y282946D01*
X1238906Y283122D01*
X1238930Y283298D01*
X1238958Y283473D01*
X1238991Y283648D01*
X1239028Y283821D01*
X1239069Y283994D01*
X1239114Y284165D01*
X1239163Y284335D01*
X1239217Y284504D01*
X1239274Y284672D01*
X1239336Y284838D01*
X1239402Y285003D01*
X1239472Y285166D01*
X1239546Y285327D01*
X1239623Y285486D01*
X1239705Y285644D01*
X1239791Y285799D01*
X1239880Y285952D01*
X1239973Y286103D01*
X1240070Y286252D01*
X1240170Y286398D01*
X1240274Y286542D01*
X1240381Y286683D01*
X1240492Y286821D01*
X1240606Y286957D01*
X1240724Y287090D01*
X1240844Y287220D01*
X1240968Y287347D01*
X1241095Y287471D01*
X1241225Y287591D01*
X1241358Y287709D01*
X1241493Y287823D01*
X1241632Y287934D01*
X1241773Y288041D01*
X1241917Y288145D01*
X1242063Y288245D01*
X1242212Y288342D01*
X1242363Y288435D01*
X1242516Y288524D01*
X1242671Y288610D01*
X1242829Y288692D01*
X1242988Y288769D01*
X1243149Y288843D01*
X1243312Y288913D01*
X1243477Y288979D01*
X1243643Y289041D01*
X1243811Y289098D01*
X1243980Y289152D01*
X1244150Y289201D01*
X1244321Y289246D01*
X1244494Y289287D01*
X1244667Y289324D01*
X1244842Y289357D01*
X1245017Y289385D01*
X1245193Y289409D01*
X1245369Y289428D01*
X1245545Y289443D01*
X1245722Y289454D01*
X1245900Y289461D01*
X1246077Y289463D01*
X1254483Y282238D02*
X1259902Y282238D01*
X1260020Y282236D01*
X1260138Y282230D01*
X1260256Y282221D01*
X1260373Y282207D01*
X1260490Y282190D01*
X1260607Y282169D01*
X1260722Y282144D01*
X1260837Y282115D01*
X1260951Y282082D01*
X1261063Y282046D01*
X1261174Y282006D01*
X1261284Y281963D01*
X1261393Y281916D01*
X1261500Y281866D01*
X1261605Y281811D01*
X1261708Y281754D01*
X1261809Y281693D01*
X1261909Y281629D01*
X1262006Y281562D01*
X1262101Y281492D01*
X1262193Y281418D01*
X1262284Y281342D01*
X1262371Y281262D01*
X1262456Y281180D01*
X1262538Y281095D01*
X1262618Y281008D01*
X1262694Y280917D01*
X1262768Y280825D01*
X1262838Y280730D01*
X1262905Y280633D01*
X1262969Y280533D01*
X1263030Y280432D01*
X1263087Y280329D01*
X1263142Y280224D01*
X1263192Y280117D01*
X1263239Y280008D01*
X1263282Y279898D01*
X1263322Y279787D01*
X1263358Y279675D01*
X1263391Y279561D01*
X1263420Y279446D01*
X1263445Y279331D01*
X1263466Y279214D01*
X1263483Y279097D01*
X1263497Y278980D01*
X1263506Y278862D01*
X1263512Y278744D01*
X1263514Y278626D01*
X1263514Y277723D01*
X1263515Y277723D02*
X1263513Y277590D01*
X1263507Y277458D01*
X1263497Y277326D01*
X1263484Y277194D01*
X1263466Y277062D01*
X1263445Y276932D01*
X1263420Y276801D01*
X1263391Y276672D01*
X1263358Y276544D01*
X1263322Y276416D01*
X1263282Y276290D01*
X1263238Y276165D01*
X1263190Y276041D01*
X1263139Y275919D01*
X1263084Y275798D01*
X1263026Y275679D01*
X1262964Y275561D01*
X1262899Y275446D01*
X1262830Y275332D01*
X1262759Y275221D01*
X1262683Y275112D01*
X1262605Y275005D01*
X1262524Y274900D01*
X1262439Y274798D01*
X1262352Y274698D01*
X1262262Y274601D01*
X1262169Y274506D01*
X1262073Y274415D01*
X1261975Y274326D01*
X1261874Y274240D01*
X1261770Y274157D01*
X1261664Y274077D01*
X1261556Y274001D01*
X1261446Y273927D01*
X1261333Y273857D01*
X1261219Y273790D01*
X1261102Y273727D01*
X1260984Y273667D01*
X1260864Y273610D01*
X1260742Y273557D01*
X1260619Y273508D01*
X1260495Y273462D01*
X1260369Y273420D01*
X1260242Y273382D01*
X1260114Y273347D01*
X1259985Y273316D01*
X1259856Y273289D01*
X1259725Y273266D01*
X1259594Y273246D01*
X1259462Y273231D01*
X1259330Y273219D01*
X1259198Y273211D01*
X1259065Y273207D01*
X1258933Y273207D01*
X1258800Y273211D01*
X1258668Y273219D01*
X1258536Y273231D01*
X1258404Y273246D01*
X1258273Y273266D01*
X1258142Y273289D01*
X1258013Y273316D01*
X1257884Y273347D01*
X1257756Y273382D01*
X1257629Y273420D01*
X1257503Y273462D01*
X1257379Y273508D01*
X1257256Y273557D01*
X1257134Y273610D01*
X1257014Y273667D01*
X1256896Y273727D01*
X1256779Y273790D01*
X1256665Y273857D01*
X1256552Y273927D01*
X1256442Y274001D01*
X1256334Y274077D01*
X1256228Y274157D01*
X1256124Y274240D01*
X1256023Y274326D01*
X1255925Y274415D01*
X1255829Y274506D01*
X1255736Y274601D01*
X1255646Y274698D01*
X1255559Y274798D01*
X1255474Y274900D01*
X1255393Y275005D01*
X1255315Y275112D01*
X1255239Y275221D01*
X1255168Y275332D01*
X1255099Y275446D01*
X1255034Y275561D01*
X1254972Y275679D01*
X1254914Y275798D01*
X1254859Y275919D01*
X1254808Y276041D01*
X1254760Y276165D01*
X1254716Y276290D01*
X1254676Y276416D01*
X1254640Y276544D01*
X1254607Y276672D01*
X1254578Y276801D01*
X1254553Y276932D01*
X1254532Y277062D01*
X1254514Y277194D01*
X1254501Y277326D01*
X1254491Y277458D01*
X1254485Y277590D01*
X1254483Y277723D01*
X1254483Y282238D01*
X1254485Y282415D01*
X1254492Y282593D01*
X1254503Y282770D01*
X1254518Y282946D01*
X1254537Y283122D01*
X1254561Y283298D01*
X1254589Y283473D01*
X1254622Y283648D01*
X1254659Y283821D01*
X1254700Y283994D01*
X1254745Y284165D01*
X1254794Y284335D01*
X1254848Y284504D01*
X1254905Y284672D01*
X1254967Y284838D01*
X1255033Y285003D01*
X1255103Y285166D01*
X1255177Y285327D01*
X1255254Y285486D01*
X1255336Y285644D01*
X1255422Y285799D01*
X1255511Y285952D01*
X1255604Y286103D01*
X1255701Y286252D01*
X1255801Y286398D01*
X1255905Y286542D01*
X1256012Y286683D01*
X1256123Y286821D01*
X1256237Y286957D01*
X1256355Y287090D01*
X1256475Y287220D01*
X1256599Y287347D01*
X1256726Y287471D01*
X1256856Y287591D01*
X1256989Y287709D01*
X1257124Y287823D01*
X1257263Y287934D01*
X1257404Y288041D01*
X1257548Y288145D01*
X1257694Y288245D01*
X1257843Y288342D01*
X1257994Y288435D01*
X1258147Y288524D01*
X1258302Y288610D01*
X1258460Y288692D01*
X1258619Y288769D01*
X1258780Y288843D01*
X1258943Y288913D01*
X1259108Y288979D01*
X1259274Y289041D01*
X1259442Y289098D01*
X1259611Y289152D01*
X1259781Y289201D01*
X1259952Y289246D01*
X1260125Y289287D01*
X1260298Y289324D01*
X1260473Y289357D01*
X1260648Y289385D01*
X1260824Y289409D01*
X1261000Y289428D01*
X1261176Y289443D01*
X1261353Y289454D01*
X1261531Y289461D01*
X1261708Y289463D01*
X1269489Y274110D02*
X1269489Y273207D01*
X1269489Y274110D02*
X1270392Y274110D01*
X1270392Y273207D01*
X1269489Y273207D01*
X1276367Y281335D02*
X1276371Y281655D01*
X1276382Y281974D01*
X1276401Y282294D01*
X1276428Y282612D01*
X1276462Y282930D01*
X1276504Y283247D01*
X1276554Y283563D01*
X1276611Y283878D01*
X1276675Y284191D01*
X1276747Y284503D01*
X1276826Y284813D01*
X1276913Y285120D01*
X1277007Y285426D01*
X1277108Y285729D01*
X1277217Y286030D01*
X1277332Y286328D01*
X1277455Y286624D01*
X1277585Y286916D01*
X1277722Y287205D01*
X1277721Y287206D02*
X1277760Y287314D01*
X1277803Y287421D01*
X1277849Y287526D01*
X1277900Y287630D01*
X1277953Y287732D01*
X1278010Y287832D01*
X1278071Y287930D01*
X1278135Y288025D01*
X1278202Y288119D01*
X1278273Y288210D01*
X1278346Y288299D01*
X1278423Y288385D01*
X1278502Y288468D01*
X1278584Y288549D01*
X1278669Y288627D01*
X1278757Y288701D01*
X1278847Y288773D01*
X1278939Y288841D01*
X1279034Y288907D01*
X1279131Y288969D01*
X1279230Y289027D01*
X1279332Y289083D01*
X1279434Y289134D01*
X1279539Y289182D01*
X1279645Y289227D01*
X1279753Y289268D01*
X1279862Y289305D01*
X1279972Y289338D01*
X1280084Y289367D01*
X1280196Y289393D01*
X1280309Y289415D01*
X1280423Y289432D01*
X1280537Y289446D01*
X1280652Y289456D01*
X1280767Y289462D01*
X1280882Y289464D01*
X1280882Y289463D02*
X1280997Y289461D01*
X1281112Y289455D01*
X1281227Y289445D01*
X1281341Y289431D01*
X1281455Y289414D01*
X1281568Y289392D01*
X1281680Y289366D01*
X1281792Y289337D01*
X1281902Y289304D01*
X1282011Y289267D01*
X1282119Y289226D01*
X1282225Y289181D01*
X1282330Y289133D01*
X1282432Y289082D01*
X1282533Y289026D01*
X1282633Y288968D01*
X1282730Y288906D01*
X1282824Y288841D01*
X1282917Y288772D01*
X1283007Y288700D01*
X1283095Y288626D01*
X1283180Y288548D01*
X1283262Y288467D01*
X1283341Y288384D01*
X1283418Y288298D01*
X1283491Y288209D01*
X1283562Y288118D01*
X1283629Y288024D01*
X1283693Y287929D01*
X1283754Y287831D01*
X1283811Y287731D01*
X1283864Y287629D01*
X1283915Y287525D01*
X1283961Y287420D01*
X1284004Y287313D01*
X1284043Y287205D01*
X1284180Y286916D01*
X1284310Y286624D01*
X1284433Y286328D01*
X1284548Y286030D01*
X1284657Y285729D01*
X1284758Y285426D01*
X1284852Y285120D01*
X1284939Y284813D01*
X1285018Y284503D01*
X1285090Y284191D01*
X1285154Y283878D01*
X1285211Y283563D01*
X1285261Y283247D01*
X1285303Y282930D01*
X1285337Y282612D01*
X1285364Y282294D01*
X1285383Y281974D01*
X1285394Y281655D01*
X1285398Y281335D01*
X1276367Y281335D02*
X1276371Y281015D01*
X1276382Y280696D01*
X1276401Y280376D01*
X1276428Y280058D01*
X1276462Y279740D01*
X1276504Y279423D01*
X1276554Y279107D01*
X1276611Y278792D01*
X1276675Y278479D01*
X1276747Y278167D01*
X1276826Y277857D01*
X1276913Y277550D01*
X1277007Y277244D01*
X1277108Y276941D01*
X1277217Y276640D01*
X1277332Y276342D01*
X1277455Y276046D01*
X1277585Y275754D01*
X1277722Y275465D01*
X1277721Y275465D02*
X1277760Y275357D01*
X1277803Y275250D01*
X1277849Y275145D01*
X1277900Y275041D01*
X1277953Y274939D01*
X1278010Y274839D01*
X1278071Y274741D01*
X1278135Y274646D01*
X1278202Y274552D01*
X1278273Y274461D01*
X1278346Y274372D01*
X1278423Y274286D01*
X1278502Y274203D01*
X1278584Y274122D01*
X1278669Y274044D01*
X1278757Y273970D01*
X1278847Y273898D01*
X1278940Y273829D01*
X1279034Y273764D01*
X1279131Y273702D01*
X1279231Y273644D01*
X1279332Y273588D01*
X1279434Y273537D01*
X1279539Y273489D01*
X1279645Y273444D01*
X1279753Y273403D01*
X1279862Y273366D01*
X1279972Y273333D01*
X1280084Y273304D01*
X1280196Y273278D01*
X1280309Y273256D01*
X1280423Y273239D01*
X1280537Y273225D01*
X1280652Y273215D01*
X1280767Y273209D01*
X1280882Y273207D01*
X1284043Y275465D02*
X1284180Y275754D01*
X1284310Y276046D01*
X1284433Y276342D01*
X1284548Y276640D01*
X1284657Y276941D01*
X1284758Y277244D01*
X1284852Y277550D01*
X1284939Y277857D01*
X1285018Y278167D01*
X1285090Y278479D01*
X1285154Y278792D01*
X1285211Y279107D01*
X1285261Y279423D01*
X1285303Y279740D01*
X1285337Y280058D01*
X1285364Y280376D01*
X1285383Y280696D01*
X1285394Y281015D01*
X1285398Y281335D01*
X1284043Y275465D02*
X1284004Y275357D01*
X1283961Y275250D01*
X1283915Y275145D01*
X1283864Y275041D01*
X1283811Y274939D01*
X1283754Y274839D01*
X1283693Y274741D01*
X1283629Y274646D01*
X1283562Y274552D01*
X1283491Y274461D01*
X1283418Y274372D01*
X1283341Y274286D01*
X1283262Y274203D01*
X1283180Y274122D01*
X1283095Y274044D01*
X1283007Y273970D01*
X1282917Y273898D01*
X1282824Y273829D01*
X1282730Y273764D01*
X1282633Y273702D01*
X1282533Y273644D01*
X1282432Y273588D01*
X1282329Y273537D01*
X1282225Y273489D01*
X1282119Y273444D01*
X1282011Y273403D01*
X1281902Y273366D01*
X1281792Y273333D01*
X1281680Y273304D01*
X1281568Y273278D01*
X1281455Y273256D01*
X1281341Y273239D01*
X1281227Y273225D01*
X1281112Y273215D01*
X1280997Y273209D01*
X1280882Y273207D01*
X1277270Y276819D02*
X1284495Y285851D01*
X1295611Y289463D02*
X1291998Y276819D01*
X1301029Y276819D01*
X1298320Y280432D02*
X1298320Y273207D01*
D10*
X939800Y317500D02*
X882200Y317500D01*
X882200Y1000000D02*
X939800Y1000000D01*
X901700Y999350D02*
X901700Y318150D01*
X898508Y343500D01*
X904892Y343500D01*
X901700Y318150D01*
X900400Y343500D01*
X903000Y343500D02*
X901700Y318150D01*
X899100Y343500D01*
X904300Y343500D02*
X901700Y318150D01*
X898508Y974000D02*
X901700Y999350D01*
X898508Y974000D02*
X904892Y974000D01*
X901700Y999350D01*
X900400Y974000D01*
X903000Y974000D02*
X901700Y999350D01*
X899100Y974000D01*
X904300Y974000D02*
X901700Y999350D01*
D11*
X886162Y633021D02*
X886162Y627602D01*
X886162Y633021D02*
X886164Y633139D01*
X886170Y633257D01*
X886179Y633375D01*
X886193Y633492D01*
X886210Y633609D01*
X886231Y633726D01*
X886256Y633841D01*
X886285Y633956D01*
X886318Y634070D01*
X886354Y634182D01*
X886394Y634293D01*
X886437Y634403D01*
X886484Y634512D01*
X886534Y634619D01*
X886589Y634724D01*
X886646Y634827D01*
X886707Y634928D01*
X886771Y635028D01*
X886838Y635125D01*
X886908Y635220D01*
X886982Y635312D01*
X887058Y635403D01*
X887138Y635490D01*
X887220Y635575D01*
X887305Y635657D01*
X887392Y635737D01*
X887483Y635813D01*
X887575Y635887D01*
X887670Y635957D01*
X887767Y636024D01*
X887867Y636088D01*
X887968Y636149D01*
X888071Y636206D01*
X888176Y636261D01*
X888283Y636311D01*
X888392Y636358D01*
X888502Y636401D01*
X888613Y636441D01*
X888725Y636477D01*
X888839Y636510D01*
X888954Y636539D01*
X889069Y636564D01*
X889186Y636585D01*
X889303Y636602D01*
X889420Y636616D01*
X889538Y636625D01*
X889656Y636631D01*
X889774Y636633D01*
X890677Y636633D01*
X890677Y636634D02*
X890810Y636632D01*
X890942Y636626D01*
X891074Y636616D01*
X891206Y636603D01*
X891338Y636585D01*
X891468Y636564D01*
X891599Y636539D01*
X891728Y636510D01*
X891856Y636477D01*
X891984Y636441D01*
X892110Y636401D01*
X892235Y636357D01*
X892359Y636309D01*
X892481Y636258D01*
X892602Y636203D01*
X892721Y636145D01*
X892839Y636083D01*
X892954Y636018D01*
X893068Y635949D01*
X893179Y635878D01*
X893288Y635802D01*
X893395Y635724D01*
X893500Y635643D01*
X893602Y635558D01*
X893702Y635471D01*
X893799Y635381D01*
X893894Y635288D01*
X893985Y635192D01*
X894074Y635094D01*
X894160Y634993D01*
X894243Y634889D01*
X894323Y634783D01*
X894399Y634675D01*
X894473Y634565D01*
X894543Y634452D01*
X894610Y634338D01*
X894673Y634221D01*
X894733Y634103D01*
X894790Y633983D01*
X894843Y633861D01*
X894892Y633738D01*
X894938Y633614D01*
X894980Y633488D01*
X895018Y633361D01*
X895053Y633233D01*
X895084Y633104D01*
X895111Y632975D01*
X895134Y632844D01*
X895154Y632713D01*
X895169Y632581D01*
X895181Y632449D01*
X895189Y632317D01*
X895193Y632184D01*
X895193Y632052D01*
X895189Y631919D01*
X895181Y631787D01*
X895169Y631655D01*
X895154Y631523D01*
X895134Y631392D01*
X895111Y631261D01*
X895084Y631132D01*
X895053Y631003D01*
X895018Y630875D01*
X894980Y630748D01*
X894938Y630622D01*
X894892Y630498D01*
X894843Y630375D01*
X894790Y630253D01*
X894733Y630133D01*
X894673Y630015D01*
X894610Y629898D01*
X894543Y629784D01*
X894473Y629671D01*
X894399Y629561D01*
X894323Y629453D01*
X894243Y629347D01*
X894160Y629243D01*
X894074Y629142D01*
X893985Y629044D01*
X893894Y628948D01*
X893799Y628855D01*
X893702Y628765D01*
X893602Y628678D01*
X893500Y628593D01*
X893395Y628512D01*
X893288Y628434D01*
X893179Y628358D01*
X893068Y628287D01*
X892954Y628218D01*
X892839Y628153D01*
X892721Y628091D01*
X892602Y628033D01*
X892481Y627978D01*
X892359Y627927D01*
X892235Y627879D01*
X892110Y627835D01*
X891984Y627795D01*
X891856Y627759D01*
X891728Y627726D01*
X891599Y627697D01*
X891468Y627672D01*
X891338Y627651D01*
X891206Y627633D01*
X891074Y627620D01*
X890942Y627610D01*
X890810Y627604D01*
X890677Y627602D01*
X886162Y627602D01*
X885985Y627604D01*
X885807Y627611D01*
X885630Y627622D01*
X885454Y627637D01*
X885278Y627656D01*
X885102Y627680D01*
X884927Y627708D01*
X884752Y627741D01*
X884579Y627778D01*
X884406Y627819D01*
X884235Y627864D01*
X884065Y627913D01*
X883896Y627967D01*
X883728Y628024D01*
X883562Y628086D01*
X883397Y628152D01*
X883234Y628222D01*
X883073Y628296D01*
X882914Y628373D01*
X882756Y628455D01*
X882601Y628541D01*
X882448Y628630D01*
X882297Y628723D01*
X882148Y628820D01*
X882002Y628920D01*
X881858Y629024D01*
X881717Y629131D01*
X881579Y629242D01*
X881443Y629356D01*
X881310Y629474D01*
X881180Y629594D01*
X881053Y629718D01*
X880929Y629845D01*
X880809Y629975D01*
X880691Y630108D01*
X880577Y630243D01*
X880466Y630382D01*
X880359Y630523D01*
X880255Y630667D01*
X880155Y630813D01*
X880058Y630962D01*
X879965Y631113D01*
X879876Y631266D01*
X879790Y631421D01*
X879708Y631579D01*
X879631Y631738D01*
X879557Y631899D01*
X879487Y632062D01*
X879421Y632227D01*
X879359Y632393D01*
X879302Y632561D01*
X879248Y632730D01*
X879199Y632900D01*
X879154Y633071D01*
X879113Y633244D01*
X879076Y633417D01*
X879043Y633592D01*
X879015Y633767D01*
X878991Y633943D01*
X878972Y634119D01*
X878957Y634295D01*
X878946Y634472D01*
X878939Y634650D01*
X878937Y634827D01*
X890677Y643233D02*
X890544Y643235D01*
X890412Y643241D01*
X890280Y643251D01*
X890148Y643264D01*
X890016Y643282D01*
X889886Y643303D01*
X889755Y643328D01*
X889626Y643357D01*
X889498Y643390D01*
X889370Y643426D01*
X889244Y643466D01*
X889119Y643510D01*
X888995Y643558D01*
X888873Y643609D01*
X888752Y643664D01*
X888633Y643722D01*
X888515Y643784D01*
X888400Y643849D01*
X888286Y643918D01*
X888175Y643989D01*
X888066Y644065D01*
X887959Y644143D01*
X887854Y644224D01*
X887752Y644309D01*
X887652Y644396D01*
X887555Y644486D01*
X887460Y644579D01*
X887369Y644675D01*
X887280Y644773D01*
X887194Y644874D01*
X887111Y644978D01*
X887031Y645084D01*
X886955Y645192D01*
X886881Y645302D01*
X886811Y645415D01*
X886744Y645529D01*
X886681Y645646D01*
X886621Y645764D01*
X886564Y645884D01*
X886511Y646006D01*
X886462Y646129D01*
X886416Y646253D01*
X886374Y646379D01*
X886336Y646506D01*
X886301Y646634D01*
X886270Y646763D01*
X886243Y646892D01*
X886220Y647023D01*
X886200Y647154D01*
X886185Y647286D01*
X886173Y647418D01*
X886165Y647550D01*
X886161Y647683D01*
X886161Y647815D01*
X886165Y647948D01*
X886173Y648080D01*
X886185Y648212D01*
X886200Y648344D01*
X886220Y648475D01*
X886243Y648606D01*
X886270Y648735D01*
X886301Y648864D01*
X886336Y648992D01*
X886374Y649119D01*
X886416Y649245D01*
X886462Y649369D01*
X886511Y649492D01*
X886564Y649614D01*
X886621Y649734D01*
X886681Y649852D01*
X886744Y649969D01*
X886811Y650083D01*
X886881Y650196D01*
X886955Y650306D01*
X887031Y650414D01*
X887111Y650520D01*
X887194Y650624D01*
X887280Y650725D01*
X887369Y650823D01*
X887460Y650919D01*
X887555Y651012D01*
X887652Y651102D01*
X887752Y651189D01*
X887854Y651274D01*
X887959Y651355D01*
X888066Y651433D01*
X888175Y651509D01*
X888286Y651580D01*
X888400Y651649D01*
X888515Y651714D01*
X888633Y651776D01*
X888752Y651834D01*
X888873Y651889D01*
X888995Y651940D01*
X889119Y651988D01*
X889244Y652032D01*
X889370Y652072D01*
X889498Y652108D01*
X889626Y652141D01*
X889755Y652170D01*
X889886Y652195D01*
X890016Y652216D01*
X890148Y652234D01*
X890280Y652247D01*
X890412Y652257D01*
X890544Y652263D01*
X890677Y652265D01*
X890810Y652263D01*
X890942Y652257D01*
X891074Y652247D01*
X891206Y652234D01*
X891338Y652216D01*
X891468Y652195D01*
X891599Y652170D01*
X891728Y652141D01*
X891856Y652108D01*
X891984Y652072D01*
X892110Y652032D01*
X892235Y651988D01*
X892359Y651940D01*
X892481Y651889D01*
X892602Y651834D01*
X892721Y651776D01*
X892839Y651714D01*
X892954Y651649D01*
X893068Y651580D01*
X893179Y651509D01*
X893288Y651433D01*
X893395Y651355D01*
X893500Y651274D01*
X893602Y651189D01*
X893702Y651102D01*
X893799Y651012D01*
X893894Y650919D01*
X893985Y650823D01*
X894074Y650725D01*
X894160Y650624D01*
X894243Y650520D01*
X894323Y650414D01*
X894399Y650306D01*
X894473Y650196D01*
X894543Y650083D01*
X894610Y649969D01*
X894673Y649852D01*
X894733Y649734D01*
X894790Y649614D01*
X894843Y649492D01*
X894892Y649369D01*
X894938Y649245D01*
X894980Y649119D01*
X895018Y648992D01*
X895053Y648864D01*
X895084Y648735D01*
X895111Y648606D01*
X895134Y648475D01*
X895154Y648344D01*
X895169Y648212D01*
X895181Y648080D01*
X895189Y647948D01*
X895193Y647815D01*
X895193Y647683D01*
X895189Y647550D01*
X895181Y647418D01*
X895169Y647286D01*
X895154Y647154D01*
X895134Y647023D01*
X895111Y646892D01*
X895084Y646763D01*
X895053Y646634D01*
X895018Y646506D01*
X894980Y646379D01*
X894938Y646253D01*
X894892Y646129D01*
X894843Y646006D01*
X894790Y645884D01*
X894733Y645764D01*
X894673Y645646D01*
X894610Y645529D01*
X894543Y645415D01*
X894473Y645302D01*
X894399Y645192D01*
X894323Y645084D01*
X894243Y644978D01*
X894160Y644874D01*
X894074Y644773D01*
X893985Y644675D01*
X893894Y644579D01*
X893799Y644486D01*
X893702Y644396D01*
X893602Y644309D01*
X893500Y644224D01*
X893395Y644143D01*
X893288Y644065D01*
X893179Y643989D01*
X893068Y643918D01*
X892954Y643849D01*
X892839Y643784D01*
X892721Y643722D01*
X892602Y643664D01*
X892481Y643609D01*
X892359Y643558D01*
X892235Y643510D01*
X892110Y643466D01*
X891984Y643426D01*
X891856Y643390D01*
X891728Y643357D01*
X891599Y643328D01*
X891468Y643303D01*
X891338Y643282D01*
X891206Y643264D01*
X891074Y643251D01*
X890942Y643241D01*
X890810Y643235D01*
X890677Y643233D01*
X882549Y644137D02*
X882430Y644139D01*
X882310Y644145D01*
X882191Y644155D01*
X882073Y644169D01*
X881954Y644186D01*
X881837Y644208D01*
X881720Y644233D01*
X881605Y644263D01*
X881490Y644296D01*
X881376Y644333D01*
X881264Y644373D01*
X881153Y644418D01*
X881044Y644466D01*
X880936Y644517D01*
X880830Y644572D01*
X880726Y644631D01*
X880624Y644693D01*
X880524Y644758D01*
X880426Y644827D01*
X880330Y644899D01*
X880237Y644974D01*
X880147Y645051D01*
X880059Y645132D01*
X879974Y645216D01*
X879892Y645303D01*
X879812Y645392D01*
X879736Y645484D01*
X879662Y645578D01*
X879592Y645675D01*
X879525Y645773D01*
X879461Y645874D01*
X879401Y645978D01*
X879344Y646083D01*
X879291Y646190D01*
X879241Y646298D01*
X879195Y646408D01*
X879153Y646520D01*
X879114Y646633D01*
X879079Y646747D01*
X879048Y646862D01*
X879020Y646979D01*
X878997Y647096D01*
X878977Y647213D01*
X878961Y647332D01*
X878949Y647451D01*
X878941Y647570D01*
X878937Y647689D01*
X878937Y647809D01*
X878941Y647928D01*
X878949Y648047D01*
X878961Y648166D01*
X878977Y648285D01*
X878997Y648402D01*
X879020Y648519D01*
X879048Y648636D01*
X879079Y648751D01*
X879114Y648865D01*
X879153Y648978D01*
X879195Y649090D01*
X879241Y649200D01*
X879291Y649308D01*
X879344Y649415D01*
X879401Y649520D01*
X879461Y649624D01*
X879525Y649725D01*
X879592Y649823D01*
X879662Y649920D01*
X879736Y650014D01*
X879812Y650106D01*
X879892Y650195D01*
X879974Y650282D01*
X880059Y650366D01*
X880147Y650447D01*
X880237Y650524D01*
X880330Y650599D01*
X880426Y650671D01*
X880524Y650740D01*
X880624Y650805D01*
X880726Y650867D01*
X880830Y650926D01*
X880936Y650981D01*
X881044Y651032D01*
X881153Y651080D01*
X881264Y651125D01*
X881376Y651165D01*
X881490Y651202D01*
X881605Y651235D01*
X881720Y651265D01*
X881837Y651290D01*
X881954Y651312D01*
X882073Y651329D01*
X882191Y651343D01*
X882310Y651353D01*
X882430Y651359D01*
X882549Y651361D01*
X882668Y651359D01*
X882788Y651353D01*
X882907Y651343D01*
X883025Y651329D01*
X883144Y651312D01*
X883261Y651290D01*
X883378Y651265D01*
X883493Y651235D01*
X883608Y651202D01*
X883722Y651165D01*
X883834Y651125D01*
X883945Y651080D01*
X884054Y651032D01*
X884162Y650981D01*
X884268Y650926D01*
X884372Y650867D01*
X884474Y650805D01*
X884574Y650740D01*
X884672Y650671D01*
X884768Y650599D01*
X884861Y650524D01*
X884951Y650447D01*
X885039Y650366D01*
X885124Y650282D01*
X885206Y650195D01*
X885286Y650106D01*
X885362Y650014D01*
X885436Y649920D01*
X885506Y649823D01*
X885573Y649725D01*
X885637Y649624D01*
X885697Y649520D01*
X885754Y649415D01*
X885807Y649308D01*
X885857Y649200D01*
X885903Y649090D01*
X885945Y648978D01*
X885984Y648865D01*
X886019Y648751D01*
X886050Y648636D01*
X886078Y648519D01*
X886101Y648402D01*
X886121Y648285D01*
X886137Y648166D01*
X886149Y648047D01*
X886157Y647928D01*
X886161Y647809D01*
X886161Y647689D01*
X886157Y647570D01*
X886149Y647451D01*
X886137Y647332D01*
X886121Y647213D01*
X886101Y647096D01*
X886078Y646979D01*
X886050Y646862D01*
X886019Y646747D01*
X885984Y646633D01*
X885945Y646520D01*
X885903Y646408D01*
X885857Y646298D01*
X885807Y646190D01*
X885754Y646083D01*
X885697Y645978D01*
X885637Y645874D01*
X885573Y645773D01*
X885506Y645675D01*
X885436Y645578D01*
X885362Y645484D01*
X885286Y645392D01*
X885206Y645303D01*
X885124Y645216D01*
X885039Y645132D01*
X884951Y645051D01*
X884861Y644974D01*
X884768Y644899D01*
X884672Y644827D01*
X884574Y644758D01*
X884474Y644693D01*
X884372Y644631D01*
X884268Y644572D01*
X884162Y644517D01*
X884054Y644466D01*
X883945Y644418D01*
X883834Y644373D01*
X883722Y644333D01*
X883608Y644296D01*
X883493Y644263D01*
X883378Y644233D01*
X883261Y644208D01*
X883144Y644186D01*
X883025Y644169D01*
X882907Y644155D01*
X882788Y644145D01*
X882668Y644139D01*
X882549Y644137D01*
X894290Y658239D02*
X895193Y658239D01*
X894290Y658239D02*
X894290Y659142D01*
X895193Y659142D01*
X895193Y658239D01*
X883001Y674148D02*
X882876Y674146D01*
X882751Y674140D01*
X882626Y674131D01*
X882502Y674117D01*
X882378Y674100D01*
X882254Y674079D01*
X882132Y674054D01*
X882010Y674025D01*
X881889Y673993D01*
X881769Y673957D01*
X881650Y673917D01*
X881533Y673874D01*
X881417Y673827D01*
X881302Y673776D01*
X881190Y673722D01*
X881078Y673664D01*
X880969Y673604D01*
X880862Y673539D01*
X880756Y673472D01*
X880653Y673401D01*
X880552Y673327D01*
X880453Y673250D01*
X880357Y673170D01*
X880263Y673087D01*
X880172Y673002D01*
X880083Y672913D01*
X879998Y672822D01*
X879915Y672728D01*
X879835Y672632D01*
X879758Y672533D01*
X879684Y672432D01*
X879613Y672329D01*
X879546Y672223D01*
X879481Y672116D01*
X879421Y672007D01*
X879363Y671895D01*
X879309Y671783D01*
X879258Y671668D01*
X879211Y671552D01*
X879168Y671435D01*
X879128Y671316D01*
X879092Y671196D01*
X879060Y671075D01*
X879031Y670953D01*
X879006Y670831D01*
X878985Y670707D01*
X878968Y670583D01*
X878954Y670459D01*
X878945Y670334D01*
X878939Y670209D01*
X878937Y670084D01*
X878939Y669941D01*
X878945Y669799D01*
X878955Y669656D01*
X878968Y669514D01*
X878986Y669373D01*
X879007Y669231D01*
X879032Y669091D01*
X879061Y668951D01*
X879094Y668812D01*
X879131Y668674D01*
X879171Y668537D01*
X879215Y668402D01*
X879263Y668267D01*
X879315Y668134D01*
X879370Y668002D01*
X879429Y667872D01*
X879491Y667744D01*
X879557Y667617D01*
X879626Y667492D01*
X879698Y667369D01*
X879774Y667248D01*
X879853Y667130D01*
X879936Y667013D01*
X880021Y666899D01*
X880110Y666787D01*
X880201Y666678D01*
X880296Y666571D01*
X880393Y666466D01*
X880494Y666365D01*
X880597Y666266D01*
X880702Y666170D01*
X880811Y666077D01*
X880922Y665987D01*
X881035Y665900D01*
X881150Y665816D01*
X881268Y665736D01*
X881388Y665658D01*
X881510Y665584D01*
X881634Y665514D01*
X881760Y665446D01*
X881888Y665383D01*
X882017Y665322D01*
X882148Y665265D01*
X882280Y665212D01*
X882414Y665163D01*
X882549Y665117D01*
X886162Y672793D02*
X886070Y672887D01*
X885976Y672977D01*
X885879Y673065D01*
X885779Y673150D01*
X885677Y673232D01*
X885572Y673310D01*
X885465Y673386D01*
X885356Y673458D01*
X885245Y673527D01*
X885131Y673593D01*
X885016Y673655D01*
X884899Y673714D01*
X884780Y673769D01*
X884660Y673820D01*
X884538Y673868D01*
X884415Y673913D01*
X884291Y673953D01*
X884165Y673990D01*
X884038Y674023D01*
X883911Y674052D01*
X883782Y674078D01*
X883653Y674099D01*
X883523Y674117D01*
X883393Y674130D01*
X883263Y674140D01*
X883132Y674146D01*
X883001Y674148D01*
X886162Y672793D02*
X895193Y665117D01*
X895193Y674148D01*
X895193Y680748D02*
X895193Y686167D01*
X895191Y686285D01*
X895185Y686403D01*
X895176Y686521D01*
X895162Y686638D01*
X895145Y686755D01*
X895124Y686872D01*
X895099Y686987D01*
X895070Y687102D01*
X895037Y687216D01*
X895001Y687328D01*
X894961Y687439D01*
X894918Y687549D01*
X894871Y687658D01*
X894821Y687765D01*
X894766Y687870D01*
X894709Y687973D01*
X894648Y688074D01*
X894584Y688174D01*
X894517Y688271D01*
X894447Y688366D01*
X894373Y688458D01*
X894297Y688549D01*
X894217Y688636D01*
X894135Y688721D01*
X894050Y688803D01*
X893963Y688883D01*
X893872Y688959D01*
X893780Y689033D01*
X893685Y689103D01*
X893588Y689170D01*
X893488Y689234D01*
X893387Y689295D01*
X893284Y689352D01*
X893179Y689407D01*
X893072Y689457D01*
X892963Y689504D01*
X892853Y689547D01*
X892742Y689587D01*
X892630Y689623D01*
X892516Y689656D01*
X892401Y689685D01*
X892286Y689710D01*
X892169Y689731D01*
X892052Y689748D01*
X891935Y689762D01*
X891817Y689771D01*
X891699Y689777D01*
X891581Y689779D01*
X889774Y689779D01*
X889656Y689777D01*
X889538Y689771D01*
X889420Y689762D01*
X889303Y689748D01*
X889186Y689731D01*
X889069Y689710D01*
X888954Y689685D01*
X888839Y689656D01*
X888725Y689623D01*
X888613Y689587D01*
X888502Y689547D01*
X888392Y689504D01*
X888283Y689457D01*
X888176Y689407D01*
X888071Y689352D01*
X887968Y689295D01*
X887867Y689234D01*
X887767Y689170D01*
X887670Y689103D01*
X887575Y689033D01*
X887483Y688959D01*
X887392Y688883D01*
X887305Y688803D01*
X887220Y688721D01*
X887138Y688636D01*
X887058Y688549D01*
X886982Y688458D01*
X886908Y688366D01*
X886838Y688271D01*
X886771Y688174D01*
X886707Y688074D01*
X886646Y687973D01*
X886589Y687870D01*
X886534Y687765D01*
X886484Y687658D01*
X886437Y687549D01*
X886394Y687439D01*
X886354Y687328D01*
X886318Y687216D01*
X886285Y687102D01*
X886256Y686987D01*
X886231Y686872D01*
X886210Y686755D01*
X886193Y686638D01*
X886179Y686521D01*
X886170Y686403D01*
X886164Y686285D01*
X886162Y686167D01*
X886162Y680748D01*
X878937Y680748D01*
X878937Y689779D01*
D12*
X1094740Y656844D03*
X1094740Y638556D03*
X1115060Y647700D03*
D13*
X1155700Y977900D03*
X1181100Y977900D03*
X1206500Y977900D03*
X1231900Y977900D03*
X1257300Y977900D03*
X1282700Y977900D03*
X1308100Y977900D03*
X1333500Y977900D03*
X1358900Y977900D03*
X1384300Y977900D03*
X1409700Y977900D03*
X1435100Y977900D03*
X1460500Y977900D03*
X1485900Y977900D03*
X1511300Y977900D03*
X1536700Y977900D03*
X1435100Y774700D03*
X1409700Y774700D03*
X1384300Y774700D03*
X1358900Y774700D03*
X1333500Y774700D03*
X1308100Y774700D03*
X1282700Y774700D03*
X1257300Y774700D03*
X1231900Y774700D03*
X1206500Y774700D03*
X1181100Y774700D03*
X1155700Y774700D03*
X1409700Y698500D03*
X1435100Y698500D03*
X1460500Y698500D03*
X1485900Y698500D03*
X1511300Y698500D03*
X1536700Y698500D03*
D14*
X1409700Y571500D03*
X1435100Y571500D03*
X1460500Y571500D03*
X1485900Y571500D03*
X1511300Y571500D03*
X1536700Y571500D03*
X1409700Y355600D03*
X1435100Y355600D03*
X1460500Y355600D03*
X1485900Y355600D03*
X1511300Y355600D03*
X1536700Y355600D03*
D15*
X1193800Y469900D03*
X1270000Y469900D03*
D16*
X1270000Y419100D03*
X1193800Y419100D03*
D15*
X1193800Y368300D03*
X1270000Y368300D03*
D17*
X1562100Y800100D02*
X1460500Y901700D01*
X1460500Y977900D01*
X1562100Y800100D02*
X1562100Y546100D01*
X1536700Y520700D01*
X1485900Y520700D01*
X1460500Y546100D01*
X1460500Y571500D01*
X1125474Y687578D02*
X1094740Y656844D01*
X1125474Y687578D02*
X1125474Y794660D01*
X1232514Y901700D01*
X1409700Y901700D01*
X1435100Y927100D01*
X1435100Y977900D01*
X1193800Y368300D02*
X1104900Y368300D01*
X990600Y482600D01*
X990600Y552704D01*
X1094740Y656844D01*
X1155700Y774700D02*
X1333500Y596900D01*
X1485900Y596900D02*
X1511300Y571500D01*
X1485900Y596900D02*
X1333500Y596900D01*
X1308100Y469900D02*
X1270000Y469900D01*
X1308100Y469900D02*
X1409700Y368300D01*
X1409700Y355600D01*
X1409700Y571500D02*
X1193800Y571500D01*
X1270000Y469900D02*
X1346200Y546100D01*
X1384300Y546100D01*
X1409700Y571500D01*
X1409700Y520700D01*
X1435100Y495300D01*
X1549400Y495300D01*
X1574800Y520700D01*
X1574800Y914400D02*
X1511300Y977900D01*
X1574800Y914400D02*
X1574800Y520700D01*
X1117600Y647700D02*
X1115060Y647700D01*
X1117600Y647700D02*
X1193800Y571500D01*
X1094740Y638556D02*
X1016000Y559816D01*
X1016000Y482600D02*
X1028700Y469900D01*
X1193800Y469900D01*
X1016000Y482600D02*
X1016000Y559816D01*
X1193800Y469900D02*
X1193800Y419100D01*
M02*
