G04 EAGLE Gerber RS-274X export*
G75*
%MOMM*%
%FSLAX34Y34*%
%LPD*%
%INBottom Copper*%
%IPPOS*%
%AMOC8*
5,1,8,0,0,1.08239X$1,22.5*%
G01*
%ADD10R,1.300000X1.300000*%
%ADD11C,1.676400*%
%ADD12C,1.778000*%
%ADD13P,1.429621X8X22.500000*%
%ADD14P,1.429621X8X202.500000*%
%ADD15C,0.406400*%


D10*
X1056800Y790100D03*
X1056800Y810100D03*
X1076800Y810100D03*
X1076800Y790100D03*
D11*
X1155700Y977900D03*
X1181100Y977900D03*
X1206500Y977900D03*
X1231900Y977900D03*
X1257300Y977900D03*
X1282700Y977900D03*
X1308100Y977900D03*
X1333500Y977900D03*
X1358900Y977900D03*
X1384300Y977900D03*
X1409700Y977900D03*
X1435100Y977900D03*
X1460500Y977900D03*
X1485900Y977900D03*
X1511300Y977900D03*
X1536700Y977900D03*
X1435100Y774700D03*
X1409700Y774700D03*
X1384300Y774700D03*
X1358900Y774700D03*
X1333500Y774700D03*
X1308100Y774700D03*
X1282700Y774700D03*
X1257300Y774700D03*
X1231900Y774700D03*
X1206500Y774700D03*
X1181100Y774700D03*
X1155700Y774700D03*
X1409700Y698500D03*
X1435100Y698500D03*
X1460500Y698500D03*
X1485900Y698500D03*
X1511300Y698500D03*
X1536700Y698500D03*
D12*
X1409700Y571500D03*
X1435100Y571500D03*
X1460500Y571500D03*
X1485900Y571500D03*
X1511300Y571500D03*
X1536700Y571500D03*
X1409700Y355600D03*
X1435100Y355600D03*
X1460500Y355600D03*
X1485900Y355600D03*
X1511300Y355600D03*
X1536700Y355600D03*
D13*
X1193800Y469900D03*
X1270000Y469900D03*
D14*
X1270000Y419100D03*
X1193800Y419100D03*
D13*
X1193800Y368300D03*
X1270000Y368300D03*
D15*
X1460500Y355600D02*
X1460500Y571500D01*
X1460500Y355600D02*
X1460500Y350699D01*
X1307846Y330454D02*
X1270000Y368300D01*
X1307846Y330454D02*
X1447800Y330454D01*
X1270000Y368300D02*
X1270000Y419100D01*
X1056800Y632300D01*
X1056800Y790100D01*
X1460500Y343154D02*
X1447800Y330454D01*
X1460500Y343154D02*
X1460500Y355600D01*
X1485900Y355600D02*
X1485900Y571500D01*
X1181100Y774700D02*
X1145700Y810100D01*
X1076800Y810100D01*
X1181100Y774700D02*
X1358900Y596900D01*
X1460500Y596900D01*
X1485900Y571500D01*
X1511300Y571500D02*
X1511300Y355600D01*
X1155700Y774700D02*
X1092200Y774700D01*
X1076800Y790100D01*
X1384300Y850900D02*
X1511300Y977900D01*
X1384300Y850900D02*
X1092200Y850900D01*
X1056800Y815500D01*
X1056800Y810100D01*
M02*
